<svg width="172" height="156" viewBox="0 0 172 156" fill="none" xmlns="http://www.w3.org/2000/svg">
<rect y="21" width="147.231" height="135" rx="4" fill="url(#paint0_linear)"/>
<g filter="url(#filter0_d)">
<rect x="18" y="6" width="147.231" height="137.5" rx="4" fill="url(#paint1_linear)"/>
</g>
<g filter="url(#filter1_d)">
<path d="M17.7693 10C17.7693 7.79086 19.5601 6 21.7693 6H161C163.209 6 165 7.79086 165 10V43.5H17.7693V10Z" fill="#C4C4C4" fill-opacity="0.01" shape-rendering="crispEdges"/>
</g>
<path d="M40.3896 29.6523C39.9941 30.126 39.4351 30.4946 38.7124 30.7583C37.9897 31.0171 37.189 31.1465 36.3101 31.1465C35.3872 31.1465 34.5767 30.9463 33.8784 30.5459C33.1851 30.1406 32.6479 29.5547 32.2671 28.7881C31.8911 28.0215 31.6982 27.1206 31.6885 26.0854V25.3604C31.6885 24.2959 31.8667 23.3755 32.2231 22.5991C32.5845 21.8179 33.1021 21.2222 33.7759 20.812C34.4546 20.397 35.248 20.1895 36.1562 20.1895C37.4209 20.1895 38.4097 20.4922 39.1226 21.0977C39.8354 21.6982 40.2578 22.5747 40.3896 23.7271H38.251C38.1533 23.1167 37.936 22.6699 37.5991 22.3867C37.2671 22.1035 36.8081 21.9619 36.2222 21.9619C35.4751 21.9619 34.9062 22.2427 34.5156 22.8042C34.125 23.3657 33.9272 24.2007 33.9224 25.3091V25.9902C33.9224 27.1084 34.1348 27.9531 34.5596 28.5244C34.9844 29.0957 35.6069 29.3813 36.4272 29.3813C37.2524 29.3813 37.8408 29.2056 38.1924 28.854V27.0156H36.1929V25.397H40.3896V29.6523ZM44.2715 31H42.1475V23.0752H44.2715V31ZM42.0229 21.0244C42.0229 20.707 42.1279 20.4458 42.3379 20.2407C42.5527 20.0356 42.8433 19.9331 43.2095 19.9331C43.5708 19.9331 43.8589 20.0356 44.0737 20.2407C44.2886 20.4458 44.396 20.707 44.396 21.0244C44.396 21.3467 44.2861 21.6104 44.0664 21.8154C43.8516 22.0205 43.5659 22.123 43.2095 22.123C42.853 22.123 42.5649 22.0205 42.3452 21.8154C42.1304 21.6104 42.0229 21.3467 42.0229 21.0244ZM48.5562 21.127V23.0752H49.9111V24.6279H48.5562V28.583C48.5562 28.876 48.6123 29.0859 48.7246 29.2129C48.8369 29.3398 49.0518 29.4033 49.3691 29.4033C49.6035 29.4033 49.811 29.3862 49.9917 29.3521V30.9561C49.5767 31.083 49.1494 31.1465 48.71 31.1465C47.2256 31.1465 46.4688 30.397 46.4395 28.8979V24.6279H45.2822V23.0752H46.4395V21.127H48.5562ZM55.6826 31C55.585 30.8096 55.5142 30.5728 55.4702 30.2896C54.9575 30.8608 54.291 31.1465 53.4707 31.1465C52.6943 31.1465 52.0498 30.9219 51.5371 30.4727C51.0293 30.0234 50.7754 29.457 50.7754 28.7734C50.7754 27.9336 51.0854 27.2891 51.7056 26.8398C52.3306 26.3906 53.2314 26.1636 54.4082 26.1587H55.3823V25.7046C55.3823 25.3384 55.2871 25.0454 55.0967 24.8257C54.9111 24.606 54.6157 24.4961 54.2104 24.4961C53.854 24.4961 53.5732 24.5815 53.3682 24.7524C53.168 24.9233 53.0679 25.1577 53.0679 25.4556H50.9512C50.9512 24.9966 51.0928 24.5718 51.376 24.1812C51.6592 23.7905 52.0596 23.4854 52.5771 23.2656C53.0947 23.041 53.6758 22.9287 54.3203 22.9287C55.2969 22.9287 56.0708 23.1753 56.6421 23.6685C57.2183 24.1567 57.5063 24.8452 57.5063 25.7339V29.1689C57.5112 29.9209 57.6162 30.4897 57.8213 30.8755V31H55.6826ZM53.9321 29.5278C54.2446 29.5278 54.5327 29.4595 54.7964 29.3228C55.0601 29.1812 55.2554 28.9932 55.3823 28.7588V27.3965H54.5913C53.5317 27.3965 52.9678 27.7627 52.8994 28.4951L52.8921 28.6196C52.8921 28.8833 52.9849 29.1006 53.1704 29.2715C53.356 29.4424 53.6099 29.5278 53.9321 29.5278ZM63.5854 25.0601C63.2974 25.021 63.0435 25.0015 62.8237 25.0015C62.0229 25.0015 61.498 25.2725 61.249 25.8145V31H59.1323V23.0752H61.1318L61.1904 24.02C61.6152 23.2925 62.2036 22.9287 62.9556 22.9287C63.1899 22.9287 63.4097 22.9604 63.6147 23.0239L63.5854 25.0601ZM67.5112 21.127V23.0752H68.8662V24.6279H67.5112V28.583C67.5112 28.876 67.5674 29.0859 67.6797 29.2129C67.792 29.3398 68.0068 29.4033 68.3242 29.4033C68.5586 29.4033 68.7661 29.3862 68.9468 29.3521V30.9561C68.5317 31.083 68.1045 31.1465 67.665 31.1465C66.1807 31.1465 65.4238 30.397 65.3945 28.8979V24.6279H64.2373V23.0752H65.3945V21.127H67.5112Z" fill="white"/>
<g filter="url(#filter2_d)">
<path d="M137.297 18.5L149.769 31M137.077 31L149.549 18.5" stroke="white" stroke-width="6" stroke-linecap="round"/>
</g>
<path d="M31 67.5C31 63.9101 33.9101 61 37.5 61H115.5C119.09 61 122 63.9101 122 67.5V67.5C122 71.0899 119.09 74 115.5 74H37.5C33.9102 74 31 71.0899 31 67.5V67.5Z" fill="white"/>
<path d="M31 92C31 88.6863 33.6863 86 37 86H71C74.3137 86 77 88.6863 77 92V92C77 95.3137 74.3137 98 71 98H37C33.6863 98 31 95.3137 31 92V92Z" fill="white"/>
<path d="M31 116.5C31 112.91 33.9101 110 37.5 110H99.5C103.09 110 106 112.91 106 116.5V116.5C106 120.09 103.09 123 99.5 123H37.5C33.9101 123 31 120.09 31 116.5V116.5Z" fill="white"/>
<defs>
<filter id="filter0_d" x="12" y="2" width="159.231" height="149.5" filterUnits="userSpaceOnUse" color-interpolation-filters="sRGB">
<feFlood flood-opacity="0" result="BackgroundImageFix"/>
<feColorMatrix in="SourceAlpha" type="matrix" values="0 0 0 0 0 0 0 0 0 0 0 0 0 0 0 0 0 0 127 0" result="hardAlpha"/>
<feOffset dy="2"/>
<feGaussianBlur stdDeviation="3"/>
<feComposite in2="hardAlpha" operator="out"/>
<feColorMatrix type="matrix" values="0 0 0 0 0 0 0 0 0 0 0 0 0 0 0 0 0 0 0.3 0"/>
<feBlend mode="normal" in2="BackgroundImageFix" result="effect1_dropShadow"/>
<feBlend mode="normal" in="SourceGraphic" in2="effect1_dropShadow" result="shape"/>
</filter>
<filter id="filter1_d" x="11.7693" y="0" width="159.231" height="49.5" filterUnits="userSpaceOnUse" color-interpolation-filters="sRGB">
<feFlood flood-opacity="0" result="BackgroundImageFix"/>
<feColorMatrix in="SourceAlpha" type="matrix" values="0 0 0 0 0 0 0 0 0 0 0 0 0 0 0 0 0 0 127 0" result="hardAlpha"/>
<feOffset/>
<feGaussianBlur stdDeviation="3"/>
<feComposite in2="hardAlpha" operator="out"/>
<feColorMatrix type="matrix" values="0 0 0 0 0 0 0 0 0 0 0 0 0 0 0 0 0 0 0.16 0"/>
<feBlend mode="normal" in2="BackgroundImageFix" result="effect1_dropShadow"/>
<feBlend mode="normal" in="SourceGraphic" in2="effect1_dropShadow" result="shape"/>
</filter>
<filter id="filter2_d" x="130.077" y="12.5" width="24.6923" height="24.5" filterUnits="userSpaceOnUse" color-interpolation-filters="sRGB">
<feFlood flood-opacity="0" result="BackgroundImageFix"/>
<feColorMatrix in="SourceAlpha" type="matrix" values="0 0 0 0 0 0 0 0 0 0 0 0 0 0 0 0 0 0 127 0" result="hardAlpha"/>
<feOffset dx="-1"/>
<feGaussianBlur stdDeviation="1.5"/>
<feComposite in2="hardAlpha" operator="out"/>
<feColorMatrix type="matrix" values="0 0 0 0 0 0 0 0 0 0 0 0 0 0 0 0 0 0 0.25 0"/>
<feBlend mode="normal" in2="BackgroundImageFix" result="effect1_dropShadow"/>
<feBlend mode="normal" in="SourceGraphic" in2="effect1_dropShadow" result="shape"/>
</filter>
<linearGradient id="paint0_linear" x1="0" y1="21" x2="123.291" y2="175.148" gradientUnits="userSpaceOnUse">
<stop stop-color="#A78BFA"/>
<stop offset="0.505208" stop-color="#EC4899"/>
<stop offset="1" stop-color="#EF4444"/>
</linearGradient>
<linearGradient id="paint1_linear" x1="18" y1="6" x2="144.061" y2="160.746" gradientUnits="userSpaceOnUse">
<stop stop-color="#A78BFA"/>
<stop offset="0.505208" stop-color="#EC4899"/>
<stop offset="1" stop-color="#EF4444"/>
</linearGradient>
</defs>
</svg>
